<svg width="28" height="29" viewBox="0 0 28 29" fill="none" xmlns="http://www.w3.org/2000/svg">
<path d="M22.1667 8.3602H5.83333C4.54467 8.3602 3.5 9.40487 3.5 10.6935V21.1935C3.5 22.4822 4.54467 23.5269 5.83333 23.5269H22.1667C23.4553 23.5269 24.5 22.4822 24.5 21.1935V10.6935C24.5 9.40487 23.4553 8.3602 22.1667 8.3602Z" stroke="#706F6F" stroke-opacity="0.8" stroke-width="2.75" stroke-linecap="round" stroke-linejoin="round"/>
<path d="M9.33331 8.36021V6.02688C9.33331 5.40804 9.57915 4.81454 10.0167 4.37696C10.4543 3.93937 11.0478 3.69354 11.6666 3.69354H16.3333C16.9521 3.69354 17.5456 3.93937 17.9832 4.37696C18.4208 4.81454 18.6666 5.40804 18.6666 6.02688V8.36021" stroke="#706F6F" stroke-opacity="0.8" stroke-width="2.75" stroke-linecap="round" stroke-linejoin="round"/>
<path d="M14 14.1935V14.2059" stroke="#706F6F" stroke-opacity="0.8" stroke-width="2.75" stroke-linecap="round" stroke-linejoin="round"/>
<path d="M3.5 15.3602C6.75684 17.0013 10.353 17.8562 14 17.8562C17.647 17.8562 21.2432 17.0013 24.5 15.3602" stroke="#706F6F" stroke-opacity="0.8" stroke-width="2.75" stroke-linecap="round" stroke-linejoin="round"/>
</svg>
