<svg width="25" height="25" viewBox="0 0 25 25" fill="none" xmlns="http://www.w3.org/2000/svg">
<path d="M9.72235 14.9979H15.2779V23.7497H9.72235V14.9979Z" fill="white"/>
<path d="M24.1944 10.2219L13.4862 0.369826C13.3571 0.25264 13.2035 0.159628 13.0342 0.0961538C12.865 0.0326797 12.6834 0 12.5001 0C12.3167 0 12.1352 0.0326797 11.9659 0.0961538C11.7967 0.159628 11.6431 0.25264 11.514 0.369826L0.80571 10.2344C0.546597 10.4695 0.341956 10.7487 0.20367 11.0556C0.0653841 11.3625 -0.00379133 11.6911 0.000160227 12.0223V22.4995C-0.00091591 23.1395 0.270677 23.7555 0.759009 24.2207C1.24734 24.6859 1.91523 24.9648 2.62514 25H6.94456V13.7476C6.94456 13.416 7.09089 13.098 7.35135 12.8636C7.61182 12.6291 7.96509 12.4974 8.33344 12.4974H16.6667C17.0351 12.4974 17.3883 12.6291 17.6488 12.8636C17.9093 13.098 18.0556 13.416 18.0556 13.7476V25H22.375C23.0849 24.9648 23.7528 24.6859 24.2411 24.2207C24.7295 23.7555 25.0011 23.1395 25 22.4995V12.0223C25.0011 11.3508 24.7122 10.7052 24.1944 10.2219Z" fill="#E42313"/>
</svg>
